# xmcd CD database file
#
# Track frame offsets:
#	150
#	23940
#	42397
#	61403
#	81387
#	97980
#	106139
#	122354
#	139717
#	163257
#	179591
#	187563
#	201226
#	224701
#	242611
#	251590
#
# Disc length: 3626 seconds
#
# Revision: 2
# Processed by: cddbd v1.5.2PL0 Copyright (c) Steve Scherf et al.
# Submitted via: CDex 1.70beta2
#
DISCID=e00e2810
DTITLE=Quadro Nuevo - CinéPassion - WAV
DYEAR=2000
DGENRE=Jazz
TTITLE0=Gelsomina ( La Strada)
TTITLE1=Volver (El DÍa Que Me Quieras)
TTITLE2=Calling You (Out Of Rosenheim&Bagdad Café)
TTITLE3=Plus Fort Que Nous (Un Homme Et Une Femme)
TTITLE4=Der Wind Hat Mir Ein Lied Erzählt (La Habanera)
TTITLE5=Georgia (The Gold Rush)
TTITLE6=Arabesque - Main Theme (Lawrence Of Arabia)
TTITLE7=Main Theme (Zwei In Einer Grossen Stadt)
TTITLE8=Oblivion (Enrico IV)
TTITLE9=Themes (The Hit)
TTITLE10=Sentimental Walk (Diva)
TTITLE11=Main Theme (Jean De Florette)
TTITLE12=Love Theme (Spartacus)
TTITLE13=Chi Mai (Le Professionnel)
TTITLE14=Running To The Church (The Six Sense)
TTITLE15=Un'Ora Sola Ti Vorrei - Senza Fine (Avanti Avanti)
EXTD=YEAR: 2000
EXTT0=
EXTT1=
EXTT2=
EXTT3=
EXTT4=
EXTT5=
EXTT6=
EXTT7=
EXTT8=
EXTT9=
EXTT10=
EXTT11=
EXTT12=
EXTT13=
EXTT14=
EXTT15=
PLAYORDER=
